<svg xmlns="http://www.w3.org/2000/svg" width="256" height="256" viewBox="0 0 100 100"><rect width="100" height="100" rx="50" fill="#b5b5b5"></rect><path d="M33.00 70.06L33.00 30.48L27.90 29.53L27.90 24.77L38.64 24.77Q40.96 24.77 44.76 24.50L44.76 24.50Q45.58 24.43 46.80 24.36Q48.03 24.30 49.66 24.30L49.66 24.30Q57.07 24.30 61.29 25.66Q65.50 27.02 67.17 29.53Q68.84 32.05 68.84 35.86L68.84 35.86Q68.84 40.96 65.67 44.29Q62.51 47.62 57.62 48.30L57.62 48.30Q64.42 48.30 68.33 51.36Q72.24 54.42 72.24 60.00L72.24 60.00Q72.24 67.27 67.24 71.49Q62.24 75.70 50.27 75.70L50.27 75.70Q48.37 75.70 46.60 75.60Q44.83 75.50 44.08 75.50L44.08 75.50Q41.64 75.30 38.78 75.30L38.78 75.30L27.76 75.30L27.76 70.81L33.00 70.06ZM44.49 46.60Q45.72 46.74 50 46.74L50 46.74Q53.74 46.74 55.51 44.19Q57.28 41.64 57.28 37.01L57.28 37.01Q57.28 32.73 55.37 30.76Q53.47 28.78 49.18 28.78L49.18 28.78Q48.16 28.78 46.80 28.89Q45.44 28.99 44.49 29.12L44.49 29.12L44.49 46.60ZM44.49 70.47Q45.85 71.01 49.86 71.01L49.86 71.01Q54.90 71.01 57.17 68.36Q59.45 65.71 59.45 60.68L59.45 60.68Q59.45 55.92 57.34 53.88Q55.24 51.84 50.68 51.84L50.68 51.84Q46.94 51.84 44.49 51.97L44.49 51.97L44.49 70.47Z" fill="#fff"></path></svg>