<svg id="visual" viewBox="0 0 450 900" width="450" height="900" xmlns="http://www.w3.org/2000/svg" xmlns:xlink="http://www.w3.org/1999/xlink" version="1.1"><rect x="0" y="0" width="450" height="900" fill="#191919"></rect><path d="M0 530L8.3 539.7C16.7 549.3 33.3 568.7 50 591.3C66.7 614 83.3 640 100 643.3C116.7 646.7 133.3 627.3 150 610C166.7 592.7 183.3 577.3 200 583.2C216.7 589 233.3 616 250 619.8C266.7 623.7 283.3 604.3 300 606.8C316.7 609.3 333.3 633.7 350 625.8C366.7 618 383.3 578 400 568.3C416.7 558.7 433.3 579.3 441.7 589.7L450 600L450 901L441.7 901C433.3 901 416.7 901 400 901C383.3 901 366.7 901 350 901C333.3 901 316.7 901 300 901C283.3 901 266.7 901 250 901C233.3 901 216.7 901 200 901C183.3 901 166.7 901 150 901C133.3 901 116.7 901 100 901C83.3 901 66.7 901 50 901C33.3 901 16.7 901 8.3 901L0 901Z" fill="#1405bd"></path><path d="M0 714L8.3 700.8C16.7 687.7 33.3 661.3 50 650.8C66.7 640.3 83.3 645.7 100 644.2C116.7 642.7 133.3 634.3 150 640.5C166.7 646.7 183.3 667.3 200 681.7C216.7 696 233.3 704 250 706C266.7 708 283.3 704 300 697.3C316.7 690.7 333.3 681.3 350 668C366.7 654.7 383.3 637.3 400 626.3C416.7 615.3 433.3 610.7 441.7 608.3L450 606L450 901L441.7 901C433.3 901 416.7 901 400 901C383.3 901 366.7 901 350 901C333.3 901 316.7 901 300 901C283.3 901 266.7 901 250 901C233.3 901 216.7 901 200 901C183.3 901 166.7 901 150 901C133.3 901 116.7 901 100 901C83.3 901 66.7 901 50 901C33.3 901 16.7 901 8.3 901L0 901Z" fill="#a3008f"></path><path d="M0 764L8.3 750.5C16.7 737 33.3 710 50 701C66.7 692 83.3 701 100 711.2C116.7 721.3 133.3 732.7 150 738.2C166.7 743.7 183.3 743.3 200 742.3C216.7 741.3 233.3 739.7 250 725.2C266.7 710.7 283.3 683.3 300 680.3C316.7 677.3 333.3 698.7 350 700.3C366.7 702 383.3 684 400 679.5C416.7 675 433.3 684 441.7 688.5L450 693L450 901L441.7 901C433.3 901 416.7 901 400 901C383.3 901 366.7 901 350 901C333.3 901 316.7 901 300 901C283.3 901 266.7 901 250 901C233.3 901 216.7 901 200 901C183.3 901 166.7 901 150 901C133.3 901 116.7 901 100 901C83.3 901 66.7 901 50 901C33.3 901 16.7 901 8.3 901L0 901Z" fill="#cb0068"></path><path d="M0 793L8.3 781.7C16.7 770.3 33.3 747.7 50 738.2C66.7 728.7 83.3 732.3 100 744.3C116.7 756.3 133.3 776.7 150 786.2C166.7 795.7 183.3 794.3 200 782.8C216.7 771.3 233.3 749.7 250 740.5C266.7 731.3 283.3 734.7 300 743.2C316.7 751.7 333.3 765.3 350 772C366.7 778.7 383.3 778.3 400 773.7C416.7 769 433.3 760 441.7 755.5L450 751L450 901L441.7 901C433.3 901 416.7 901 400 901C383.3 901 366.7 901 350 901C333.3 901 316.7 901 300 901C283.3 901 266.7 901 250 901C233.3 901 216.7 901 200 901C183.3 901 166.7 901 150 901C133.3 901 116.7 901 100 901C83.3 901 66.7 901 50 901C33.3 901 16.7 901 8.3 901L0 901Z" fill="#dd0040"></path><path d="M0 798L8.3 804.8C16.7 811.7 33.3 825.3 50 828.5C66.7 831.7 83.3 824.3 100 817.7C116.7 811 133.3 805 150 808.5C166.7 812 183.3 825 200 823C216.7 821 233.3 804 250 805.5C266.7 807 283.3 827 300 827.5C316.7 828 333.3 809 350 810C366.7 811 383.3 832 400 838.2C416.7 844.3 433.3 835.7 441.7 831.3L450 827L450 901L441.7 901C433.3 901 416.7 901 400 901C383.3 901 366.7 901 350 901C333.3 901 316.7 901 300 901C283.3 901 266.7 901 250 901C233.3 901 216.7 901 200 901C183.3 901 166.7 901 150 901C133.3 901 116.7 901 100 901C83.3 901 66.7 901 50 901C33.3 901 16.7 901 8.3 901L0 901Z" fill="#de0100"></path></svg>